<?xml version="1.0" encoding="UTF-8"?>
<svg version="1.1" xmlns="http://www.w3.org/2000/svg" width="473" height="172">
<path d="M0 0 C156.09 0 312.18 0 473 0 C473 56.76 473 113.52 473 172 C316.91 172 160.82 172 0 172 C0 115.24 0 58.48 0 0 Z " fill="#F0ECEC" transform="translate(0,0)"/>
<path d="M0 0 C0.69871454 0.00173296 1.39742908 0.00346593 2.11731678 0.00525141 C3.22917334 -0.00366196 3.22917334 -0.00366196 4.36349165 -0.01275539 C6.86062579 -0.03017241 9.35756864 -0.03314948 11.8547588 -0.03613043 C13.64014304 -0.04538427 15.42552331 -0.05543325 17.21089894 -0.06622076 C22.07293272 -0.09250904 26.93491121 -0.10536802 31.797005 -0.11424208 C34.83607039 -0.1201009 37.87512065 -0.1283103 40.91417843 -0.13725042 C50.426263 -0.16461934 59.93831299 -0.18393975 69.45043421 -0.19165421 C80.42272988 -0.20060172 91.39452551 -0.23562504 102.36666918 -0.2936554 C110.85004872 -0.33696036 119.33328802 -0.35706677 127.81677687 -0.35973644 C132.88160875 -0.36182871 137.9459712 -0.37355931 143.01068646 -0.40937567 C147.78216542 -0.44245849 152.55282541 -0.44659081 157.32437855 -0.42909765 C159.06940687 -0.42756294 160.81448025 -0.43616287 162.55939633 -0.45601416 C172.74706783 -0.5650521 180.41188012 0.20779815 189.00344044 6.2861352 C190.10703907 6.95483637 191.21063771 7.62353754 192.34767872 8.31250238 C195.27783619 10.21555647 198.20692371 12.11983105 201.12844044 14.0361352 C202.16742481 14.70773676 203.20640919 15.37933832 204.27687794 16.07129145 C205.26172169 16.71453363 206.24656544 17.35777582 207.26125294 18.0205102 C208.14957814 18.60026606 209.03790333 19.18002192 209.95314747 19.77734613 C212.00344044 21.2861352 212.00344044 21.2861352 213.00344044 23.2861352 C213.15124006 25.26153399 213.2246301 27.24292444 213.25344044 29.2236352 C213.29211231 30.81498285 213.29211231 30.81498285 213.33156544 32.43847895 C213.00344044 35.2861352 213.00344044 35.2861352 211.89797169 36.89941645 C209.15685386 38.90580166 206.32105774 40.73889892 203.44094044 42.5361352 C198.20867217 45.83316238 193.14097408 49.26461954 188.18703419 52.9736352 C185.77948019 54.42075173 183.76868604 54.89734847 181.00344044 55.2861352 C181.00344044 55.9461352 181.00344044 56.6061352 181.00344044 57.2861352 C177.5223753 58.44649024 174.81871714 58.40616224 171.14528614 58.39966059 C170.45234455 58.39980661 169.75940296 58.39995264 169.04546314 58.40010309 C166.75668407 58.39940682 164.46798653 58.3916278 162.17922169 58.38379145 C160.5916723 58.38192625 159.00412233 58.38050283 157.41657215 58.37950373 C153.23921324 58.37568654 149.06188912 58.36586305 144.88454396 58.35479975 C140.62144653 58.34456848 136.35834348 58.34000243 132.09523731 58.33496332 C123.73128906 58.32424008 115.36736908 58.30717323 107.00344044 58.2861352 C107.99344044 61.2561352 107.99344044 61.2561352 109.00344044 64.2861352 C110.8693282 64.29493456 110.8693282 64.29493456 112.77291065 64.30391169 C124.48584423 64.36108169 136.19859112 64.43381335 147.91133457 64.52185011 C153.93323391 64.56661062 159.95506469 64.6058543 165.97707325 64.63257074 C171.78676757 64.65854689 177.5961989 64.69890911 183.40573078 64.74932146 C185.6240966 64.76602868 187.84250795 64.77751887 190.06092793 64.7837491 C193.16411737 64.79334817 196.26662809 64.82135761 199.36965138 64.85376215 C200.29034413 64.85232706 201.21103688 64.85089197 202.1596294 64.84941339 C208.33648547 64.94085872 208.33648547 64.94085872 211.57419544 66.61699152 C213.87854561 69.30812671 213.50462375 71.78336219 213.49953419 75.2548852 C213.50098942 75.93160273 213.50244465 76.60832026 213.50394398 77.30554438 C213.50228599 78.73450262 213.4907355 80.16347889 213.46999317 81.59228754 C213.44103799 83.77876918 213.44938303 85.96282562 213.46242481 88.14941645 C213.45618703 89.53875114 213.44779576 90.92807818 213.43703419 92.3173852 C213.42728565 93.58131098 213.41753712 94.84523676 213.40749317 96.14746332 C213.00344044 99.2861352 213.00344044 99.2861352 211.60134083 101.15918207 C207.88378302 103.78106853 204.37168848 103.45523521 199.97707325 103.47900629 C198.73288121 103.49127253 198.73288121 103.49127253 197.46355397 103.50378656 C194.71123183 103.52865264 191.95896136 103.54516053 189.20656544 103.5595727 C188.26708813 103.56489637 187.32761082 103.57022005 186.3596645 103.57570505 C181.38611373 103.60244316 176.41258811 103.62181509 171.43898731 103.63623285 C166.3029055 103.65287352 161.16746624 103.6976445 156.03162724 103.7486043 C152.08190386 103.78227159 148.13233301 103.79380977 144.18247944 103.79945993 C142.28944961 103.80617489 140.39642989 103.82140333 138.50353962 103.84535074 C135.8509572 103.8769917 133.20010756 103.87704086 130.54738575 103.86963129 C129.76793598 103.88603662 128.98848622 103.90244196 128.18541676 103.91934443 C122.46280635 103.85404255 120.03488502 102.33984817 116.00344044 98.2861352 C114.44289356 96.45947504 114.44289356 96.45947504 113.28469044 94.7470727 C112.83376026 94.09319574 112.38283009 93.43931879 111.91823536 92.76562738 C111.45135304 92.07114496 110.98447071 91.37666254 110.50344044 90.6611352 C107.130246 85.72995236 103.71683889 80.86200845 100.07765919 76.1220727 C99.43054981 75.27338617 98.78344044 74.42469965 98.11672169 73.55029535 C96.85095786 71.89780602 95.57388347 70.25390801 94.28469044 68.61963129 C93.71105763 67.86504633 93.13742481 67.11046137 92.54640919 66.3330102 C92.03102589 65.67139887 91.51564259 65.00978754 90.98464161 64.32812738 C89.67344359 61.59937391 90.08976567 60.12006059 91.00344044 57.2861352 C92.56203419 55.70410395 92.56203419 55.70410395 94.44094044 54.4736352 C95.05840138 54.05468988 95.67586231 53.63574457 96.31203419 53.20410395 C98.00344044 52.2861352 98.00344044 52.2861352 100.00344044 52.2861352 C100.00344044 51.6261352 100.00344044 50.9661352 100.00344044 50.2861352 C101.61743658 48.96882952 103.29757883 47.73209252 105.00344044 46.5361352 C105.99988575 45.81168207 106.99633106 45.08722895 108.02297169 44.3408227 C111.00344044 42.2861352 111.00344044 42.2861352 113.51515919 40.9189477 C117.24496001 38.76276123 118.70911799 37.35174015 119.87844044 33.11816645 C120.35144859 27.60170894 120.29950908 23.86338483 116.69875294 19.4814477 C113.89735404 17.16592828 111.10285481 15.18091888 108.00344044 13.2861352 C107.23709278 12.76519281 106.47074513 12.24425043 105.68117481 11.70752192 C102.64853154 10.09774354 100.67761294 9.86565853 97.26515919 9.77441645 C96.19845997 9.73896723 95.13176075 9.70351801 94.03273731 9.66699457 C92.37854786 9.63315668 92.37854786 9.63315668 90.69094044 9.5986352 C89.00774708 9.54739496 89.00774708 9.54739496 87.29054981 9.49511957 C84.52827982 9.41283919 81.76631931 9.34362239 79.00344044 9.2861352 C79.01232289 9.88224604 79.02120533 10.47835688 79.03035694 11.09253168 C79.11916116 17.32217003 79.17931149 23.55162722 79.223167 29.78174067 C79.2432262 32.10375513 79.27048035 34.42571943 79.30519825 36.74756098 C79.35396585 40.09387865 79.37646687 43.43952578 79.39406544 46.7861352 C79.41471058 47.8166601 79.43535572 48.847185 79.45662647 49.90893793 C79.459184 58.20828616 77.25445015 63.80788931 72.12062794 70.2939477 C71.59783253 70.96393793 71.07503712 71.63392817 70.53639942 72.32422113 C69.98927296 73.01290277 69.44214649 73.70158442 68.87844044 74.4111352 C67.7190349 75.89666966 66.56150812 77.38367219 65.40578419 78.8720727 C64.83327931 79.60909418 64.26077442 80.34611567 63.67092091 81.10547113 C60.76270575 84.90871825 58.00070965 88.81328806 55.25099903 92.73193598 C48.68997711 102.05728964 48.68997711 102.05728964 45.00344044 103.2861352 C41.04944151 103.54466891 37.08999242 103.51751451 33.12844044 103.5361352 C32.03918263 103.5567602 30.94992481 103.5773852 29.82765919 103.5986352 C28.77449513 103.60379145 27.72133106 103.6089477 26.63625294 103.6142602 C25.67606251 103.6236059 24.71587208 103.6329516 23.72658497 103.64258051 C20.21267157 103.18262771 17.52530868 101.80800344 15.00344044 99.2861352 C14.88192289 96.90961538 14.8248663 94.56160549 14.81056935 92.18359613 C14.80239186 91.44045664 14.79421437 90.69731714 14.78578907 89.93165827 C14.76088639 87.46128388 14.744405 84.99096722 14.73000294 82.5205102 C14.72467926 81.67816072 14.71935559 80.83581125 14.71387058 79.96793604 C14.68711529 75.50776818 14.66774979 71.04762852 14.65334278 66.58740473 C14.63670687 61.9791539 14.59194538 57.37161993 14.54097134 52.76363993 C14.50731257 49.22228407 14.49576676 45.68109841 14.4901157 42.13959742 C14.48339722 40.44111144 14.46815953 38.74263689 14.44422489 37.04430628 C14.41260366 34.66436236 14.41253125 32.28635122 14.41994435 29.90625238 C14.40353901 29.20579294 14.38713368 28.5053335 14.37023121 27.78364801 C14.41942362 23.92016817 14.91127052 22.3976208 17.4078899 19.37779474 C19.74266694 17.49628305 21.35278551 16.43795798 24.17531544 15.55566645 C25.29486622 15.18731684 25.29486622 15.18731684 26.43703419 14.81152582 C27.20144825 14.57627192 27.96586231 14.34101801 28.75344044 14.0986352 C31.53436969 13.21839065 34.26182648 12.28923644 37.00344044 11.2861352 C37.33344044 10.6261352 37.66344044 9.9661352 38.00344044 9.2861352 C36.11854908 9.30184565 36.11854908 9.30184565 34.19557911 9.31787348 C29.53838147 9.35404337 24.88119628 9.37702473 20.22389942 9.39599848 C18.20727663 9.40606292 16.19066845 9.41971566 14.17409474 9.4370141 C11.27732955 9.46124289 8.38075713 9.47261378 5.48390919 9.4814477 C4.12908688 9.49693155 4.12908688 9.49693155 2.74689442 9.51272821 C1.48592694 9.51295481 1.48592694 9.51295481 0.19948536 9.51318598 C-0.90971012 9.51984781 -0.90971012 9.51984781 -2.04131359 9.52664423 C-3.99655956 9.2861352 -3.99655956 9.2861352 -6.99655956 7.2861352 C-7.30905956 4.7861352 -7.30905956 4.7861352 -6.99655956 2.2861352 C-4.57493148 -0.13549288 -3.3052243 0.04000835 0 0 Z " fill="#232322" transform="translate(134.99655956029892,39.71386480331421)"/>
<path d="M0 0 C1.8125 0.1875 1.8125 0.1875 4 1 C5.75 3.5625 5.75 3.5625 7 6 C6.01 6 5.02 6 4 6 C4 5.34 4 4.68 4 4 C3.34 4 2.68 4 2 4 C2 3.34 2 2.68 2 2 C1.34 2 0.68 2 0 2 C0 1.34 0 0.68 0 0 Z " fill="#E4E3E2" transform="translate(237,121)"/>
<path d="M0 0 C0.33 0.66 0.66 1.32 1 2 C0.34 2 -0.32 2 -1 2 C-1.268125 2.639375 -1.53625 3.27875 -1.8125 3.9375 C-3 6 -3 6 -6 7 C-6.33 6.34 -6.66 5.68 -7 5 C-4.69 3.35 -2.38 1.7 0 0 Z " fill="#3B3A38" transform="translate(249,80)"/>
<path d="M0 0 C2.0625 0.4375 2.0625 0.4375 4 1 C2.625 3.5 2.625 3.5 1 6 C0.34 6 -0.32 6 -1 6 C-1.042721 4.33388095 -1.04063832 2.66617115 -1 1 C-0.67 0.67 -0.34 0.34 0 0 Z " fill="#1C1B1A" transform="translate(129,41)"/>
</svg>
